<svg xmlns="http://www.w3.org/2000/svg" xmlns:xlink="http://www.w3.org/1999/xlink" viewBox="0 0 381.12 172.19"><defs><style>.cls-1{fill:url(#linear-gradient);}.cls-2{fill:url(#linear-gradient-2);}.cls-3{fill:url(#linear-gradient-4);}.cls-4{fill:url(#linear-gradient-6);}.cls-5{fill:url(#linear-gradient-8);}.cls-6{fill:url(#linear-gradient-9);}.cls-7{fill:url(#linear-gradient-10);}.cls-8{fill:url(#linear-gradient-12);}.cls-9{fill:url(#linear-gradient-14);}.cls-10{fill:url(#linear-gradient-16);}.cls-11{fill:url(#linear-gradient-18);}.cls-12{fill:url(#linear-gradient-20);}.cls-13{fill:url(#linear-gradient-22);}.cls-14{fill:url(#linear-gradient-24);}.cls-15{fill:url(#linear-gradient-26);}.cls-16{fill:url(#linear-gradient-28);}.cls-17{fill:url(#linear-gradient-30);}.cls-18{fill:url(#linear-gradient-32);}.cls-19{fill:url(#linear-gradient-34);}.cls-20{fill:url(#linear-gradient-36);}.cls-21{fill:url(#linear-gradient-38);}.cls-22{fill:url(#linear-gradient-39);}.cls-23{fill:url(#linear-gradient-40);}.cls-24{fill:url(#linear-gradient-42);}.cls-25{fill:url(#linear-gradient-44);}.cls-26{fill:url(#linear-gradient-46);}.cls-27{fill:url(#linear-gradient-48);}.cls-28{fill:url(#linear-gradient-50);}.cls-29{fill:url(#linear-gradient-52);}.cls-30{fill:url(#linear-gradient-54);}.cls-31{fill:url(#linear-gradient-56);}.cls-32{fill:url(#linear-gradient-58);}.cls-33{fill:url(#linear-gradient-60);}.cls-34{fill:url(#linear-gradient-62);}.cls-35{fill:url(#linear-gradient-64);}.cls-36{fill:url(#linear-gradient-66);}.cls-37{fill:url(#linear-gradient-68);}.cls-38{fill:url(#linear-gradient-70);}.cls-39{fill:url(#linear-gradient-72);}.cls-40{fill:url(#linear-gradient-74);}.cls-41{fill:url(#linear-gradient-76);}.cls-42{fill:url(#linear-gradient-78);}.cls-43{fill:url(#linear-gradient-80);}.cls-44{fill:url(#linear-gradient-82);}.cls-45{fill:url(#linear-gradient-84);}.cls-46{fill:url(#linear-gradient-86);}.cls-47{fill:url(#linear-gradient-88);}.cls-48{fill:url(#linear-gradient-89);}.cls-49{fill:url(#linear-gradient-90);}.cls-50{fill:url(#linear-gradient-92);}.cls-51{fill:url(#linear-gradient-94);}.cls-52{fill:url(#linear-gradient-96);}.cls-53{fill:url(#linear-gradient-97);}.cls-54{fill:url(#linear-gradient-98);}.cls-55{fill:url(#linear-gradient-100);}.cls-56{fill:url(#linear-gradient-102);}.cls-57{fill:url(#linear-gradient-104);}.cls-58{fill:url(#linear-gradient-106);}.cls-59{fill:url(#linear-gradient-108);}.cls-60{fill:url(#linear-gradient-110);}.cls-61{fill:url(#linear-gradient-112);}.cls-62{fill:url(#linear-gradient-114);}.cls-63{fill:url(#linear-gradient-116);}.cls-64{fill:url(#linear-gradient-118);}.cls-65{fill:url(#linear-gradient-120);}.cls-66{fill:url(#linear-gradient-122);}.cls-67{fill:url(#linear-gradient-124);}.cls-68{fill:url(#linear-gradient-126);}.cls-69{fill:url(#linear-gradient-127);}.cls-70{fill:url(#linear-gradient-128);}.cls-71{fill:url(#linear-gradient-130);}.cls-72{fill:url(#linear-gradient-132);}.cls-73{fill:url(#linear-gradient-134);}.cls-74{fill:url(#linear-gradient-136);}.cls-75{fill:url(#linear-gradient-138);}.cls-76{fill:url(#linear-gradient-140);}.cls-77{fill:url(#linear-gradient-142);}.cls-78{fill:url(#linear-gradient-144);}.cls-79{fill:url(#linear-gradient-146);}.cls-80{fill:url(#linear-gradient-148);}.cls-81{fill:url(#linear-gradient-150);}.cls-82{fill:url(#linear-gradient-152);}.cls-83{fill:url(#linear-gradient-154);}.cls-84{fill:url(#linear-gradient-156);}.cls-85{fill:url(#linear-gradient-158);}.cls-86{fill:url(#linear-gradient-160);}.cls-87{fill:url(#linear-gradient-162);}.cls-88{fill:url(#linear-gradient-164);}.cls-89{fill:url(#linear-gradient-166);}.cls-90{fill:url(#linear-gradient-168);}.cls-91{fill:url(#linear-gradient-170);}.cls-92{fill:url(#linear-gradient-172);}.cls-93{fill:url(#linear-gradient-174);}.cls-94{fill:url(#linear-gradient-176);}.cls-95{fill:url(#linear-gradient-177);}.cls-96{fill:url(#linear-gradient-178);}.cls-97{fill:url(#linear-gradient-180);}.cls-98{fill:url(#linear-gradient-182);}.cls-99{fill:url(#linear-gradient-184);}.cls-100{fill:url(#linear-gradient-186);}.cls-101{fill:url(#linear-gradient-188);}.cls-102{fill:url(#linear-gradient-190);}.cls-103{fill:url(#linear-gradient-192);}.cls-104{fill:url(#linear-gradient-194);}.cls-105{fill:url(#linear-gradient-196);}.cls-106{fill:url(#linear-gradient-198);}.cls-107{fill:url(#linear-gradient-200);}.cls-108{fill:url(#linear-gradient-202);}.cls-109{fill:url(#linear-gradient-204);}.cls-110{fill:url(#linear-gradient-206);}.cls-111{fill:url(#linear-gradient-208);}.cls-112{fill:url(#linear-gradient-210);}.cls-113{fill:url(#linear-gradient-212);}.cls-114{fill:url(#linear-gradient-214);}.cls-115{fill:url(#linear-gradient-216);}.cls-116{fill:url(#linear-gradient-218);}.cls-117{fill:url(#linear-gradient-220);}.cls-118{fill:url(#linear-gradient-222);}.cls-119{fill:url(#linear-gradient-224);}.cls-120{fill:url(#linear-gradient-226);}.cls-121{fill:url(#linear-gradient-228);}.cls-122{fill:url(#linear-gradient-230);}.cls-123{fill:url(#linear-gradient-232);}.cls-124{fill:url(#linear-gradient-234);}.cls-125{fill:url(#linear-gradient-236);}.cls-126{fill:url(#linear-gradient-238);}.cls-127{fill:url(#linear-gradient-240);}.cls-128{fill:url(#linear-gradient-242);}.cls-129{fill:url(#linear-gradient-244);}.cls-130{fill:url(#linear-gradient-246);}.cls-131{fill:url(#linear-gradient-248);}.cls-132{fill:url(#linear-gradient-250);}.cls-133{fill:url(#linear-gradient-252);}.cls-134{fill:url(#linear-gradient-254);}.cls-135{fill:url(#linear-gradient-256);}.cls-136{fill:url(#linear-gradient-258);}.cls-137{fill:url(#linear-gradient-260);}.cls-138{fill:url(#linear-gradient-262);}.cls-139{fill:url(#linear-gradient-264);}</style><linearGradient id="linear-gradient" x1="0.62" y1="114.77" x2="0.62" y2="205.3" gradientUnits="userSpaceOnUse"><stop offset="0" stop-color="#d9d38d" stop-opacity="0"/><stop offset="1" stop-color="#917c29"/></linearGradient><linearGradient id="linear-gradient-2" x1="9.27" y1="114.77" x2="9.27" y2="205.3" xlink:href="#linear-gradient"/><linearGradient id="linear-gradient-4" x1="17.92" y1="114.77" x2="17.92" y2="205.3" xlink:href="#linear-gradient"/><linearGradient id="linear-gradient-6" x1="26.57" y1="114.77" x2="26.57" y2="205.3" xlink:href="#linear-gradient"/><linearGradient id="linear-gradient-8" x1="35.22" y1="114.78" x2="35.22" y2="205.31" xlink:href="#linear-gradient"/><linearGradient id="linear-gradient-9" x1="35.22" y1="114.77" x2="35.22" y2="205.3" xlink:href="#linear-gradient"/><linearGradient id="linear-gradient-10" x1="43.86" y1="114.77" x2="43.86" y2="205.3" xlink:href="#linear-gradient"/><linearGradient id="linear-gradient-12" x1="52.51" y1="114.77" x2="52.51" y2="205.3" xlink:href="#linear-gradient"/><linearGradient id="linear-gradient-14" x1="61.16" y1="114.77" x2="61.16" y2="205.3" xlink:href="#linear-gradient"/><linearGradient id="linear-gradient-16" x1="69.81" y1="114.77" x2="69.81" y2="205.3" xlink:href="#linear-gradient"/><linearGradient id="linear-gradient-18" x1="78.45" y1="114.77" x2="78.45" y2="205.3" xlink:href="#linear-gradient"/><linearGradient id="linear-gradient-20" x1="87.1" y1="114.77" x2="87.1" y2="205.3" xlink:href="#linear-gradient"/><linearGradient id="linear-gradient-22" x1="95.75" y1="114.77" x2="95.75" y2="205.3" xlink:href="#linear-gradient"/><linearGradient id="linear-gradient-24" x1="104.4" y1="114.77" x2="104.4" y2="205.3" xlink:href="#linear-gradient"/><linearGradient id="linear-gradient-26" x1="113.04" y1="114.77" x2="113.04" y2="205.3" xlink:href="#linear-gradient"/><linearGradient id="linear-gradient-28" x1="121.69" y1="114.77" x2="121.69" y2="205.3" xlink:href="#linear-gradient"/><linearGradient id="linear-gradient-30" x1="130.34" y1="114.77" x2="130.34" y2="205.3" xlink:href="#linear-gradient"/><linearGradient id="linear-gradient-32" x1="138.99" y1="114.77" x2="138.99" y2="205.3" xlink:href="#linear-gradient"/><linearGradient id="linear-gradient-34" x1="147.64" y1="114.77" x2="147.64" y2="205.3" xlink:href="#linear-gradient"/><linearGradient id="linear-gradient-36" x1="156.28" y1="114.77" x2="156.28" y2="205.3" xlink:href="#linear-gradient"/><linearGradient id="linear-gradient-38" x1="164.93" y1="114.77" x2="164.93" y2="205.3" xlink:href="#linear-gradient"/><linearGradient id="linear-gradient-39" x1="164.93" y1="114.77" x2="164.93" y2="205.29" xlink:href="#linear-gradient"/><linearGradient id="linear-gradient-40" x1="173.58" y1="114.77" x2="173.58" y2="205.3" xlink:href="#linear-gradient"/><linearGradient id="linear-gradient-42" x1="182.23" y1="114.77" x2="182.23" y2="205.3" xlink:href="#linear-gradient"/><linearGradient id="linear-gradient-44" x1="190.87" y1="114.77" x2="190.87" y2="205.3" xlink:href="#linear-gradient"/><linearGradient id="linear-gradient-46" x1="199.52" y1="114.77" x2="199.52" y2="205.3" xlink:href="#linear-gradient"/><linearGradient id="linear-gradient-48" x1="208.17" y1="114.77" x2="208.17" y2="205.3" xlink:href="#linear-gradient"/><linearGradient id="linear-gradient-50" x1="216.82" y1="114.77" x2="216.82" y2="205.3" xlink:href="#linear-gradient"/><linearGradient id="linear-gradient-52" x1="225.47" y1="114.77" x2="225.47" y2="205.3" xlink:href="#linear-gradient"/><linearGradient id="linear-gradient-54" x1="234.11" y1="114.77" x2="234.11" y2="205.3" xlink:href="#linear-gradient"/><linearGradient id="linear-gradient-56" x1="242.76" y1="114.77" x2="242.76" y2="205.3" xlink:href="#linear-gradient"/><linearGradient id="linear-gradient-58" x1="251.41" y1="114.77" x2="251.41" y2="205.3" xlink:href="#linear-gradient"/><linearGradient id="linear-gradient-60" x1="260.06" y1="114.77" x2="260.06" y2="205.3" xlink:href="#linear-gradient"/><linearGradient id="linear-gradient-62" x1="268.7" y1="114.77" x2="268.7" y2="205.3" xlink:href="#linear-gradient"/><linearGradient id="linear-gradient-64" x1="277.35" y1="114.77" x2="277.35" y2="205.3" xlink:href="#linear-gradient"/><linearGradient id="linear-gradient-66" x1="286" y1="114.77" x2="286" y2="205.3" xlink:href="#linear-gradient"/><linearGradient id="linear-gradient-68" x1="294.65" y1="114.77" x2="294.65" y2="205.3" xlink:href="#linear-gradient"/><linearGradient id="linear-gradient-70" x1="303.29" y1="114.77" x2="303.29" y2="205.3" xlink:href="#linear-gradient"/><linearGradient id="linear-gradient-72" x1="311.94" y1="114.77" x2="311.94" y2="205.3" xlink:href="#linear-gradient"/><linearGradient id="linear-gradient-74" x1="320.59" y1="114.77" x2="320.59" y2="205.3" xlink:href="#linear-gradient"/><linearGradient id="linear-gradient-76" x1="329.24" y1="114.77" x2="329.24" y2="205.3" xlink:href="#linear-gradient"/><linearGradient id="linear-gradient-78" x1="337.89" y1="114.77" x2="337.89" y2="205.3" xlink:href="#linear-gradient"/><linearGradient id="linear-gradient-80" x1="346.53" y1="114.77" x2="346.53" y2="205.3" xlink:href="#linear-gradient"/><linearGradient id="linear-gradient-82" x1="355.18" y1="114.77" x2="355.18" y2="205.3" xlink:href="#linear-gradient"/><linearGradient id="linear-gradient-84" x1="363.83" y1="114.77" x2="363.83" y2="205.3" xlink:href="#linear-gradient"/><linearGradient id="linear-gradient-86" x1="372.48" y1="114.77" x2="372.48" y2="205.3" xlink:href="#linear-gradient"/><linearGradient id="linear-gradient-88" x1="381.03" y1="114.77" x2="381.03" y2="205.3" xlink:href="#linear-gradient"/><linearGradient id="linear-gradient-89" x1="0.62" y1="71.61" x2="0.62" y2="162.14" xlink:href="#linear-gradient"/><linearGradient id="linear-gradient-90" x1="9.27" y1="71.61" x2="9.27" y2="162.14" xlink:href="#linear-gradient"/><linearGradient id="linear-gradient-92" x1="17.92" y1="71.61" x2="17.92" y2="162.14" xlink:href="#linear-gradient"/><linearGradient id="linear-gradient-94" x1="26.57" y1="71.61" x2="26.57" y2="162.14" xlink:href="#linear-gradient"/><linearGradient id="linear-gradient-96" x1="35.22" y1="71.62" x2="35.22" y2="162.15" xlink:href="#linear-gradient"/><linearGradient id="linear-gradient-97" x1="35.22" y1="71.61" x2="35.22" y2="162.14" xlink:href="#linear-gradient"/><linearGradient id="linear-gradient-98" x1="43.86" y1="71.61" x2="43.86" y2="162.14" xlink:href="#linear-gradient"/><linearGradient id="linear-gradient-100" x1="52.51" y1="71.61" x2="52.51" y2="162.14" xlink:href="#linear-gradient"/><linearGradient id="linear-gradient-102" x1="61.16" y1="71.61" x2="61.16" y2="162.14" xlink:href="#linear-gradient"/><linearGradient id="linear-gradient-104" x1="69.81" y1="71.61" x2="69.81" y2="162.14" xlink:href="#linear-gradient"/><linearGradient id="linear-gradient-106" x1="78.45" y1="71.61" x2="78.45" y2="162.14" xlink:href="#linear-gradient"/><linearGradient id="linear-gradient-108" x1="87.1" y1="71.61" x2="87.1" y2="162.14" xlink:href="#linear-gradient"/><linearGradient id="linear-gradient-110" x1="95.75" y1="71.61" x2="95.75" y2="162.14" xlink:href="#linear-gradient"/><linearGradient id="linear-gradient-112" x1="104.4" y1="71.61" x2="104.4" y2="162.14" xlink:href="#linear-gradient"/><linearGradient id="linear-gradient-114" x1="113.04" y1="71.61" x2="113.04" y2="162.14" xlink:href="#linear-gradient"/><linearGradient id="linear-gradient-116" x1="121.69" y1="71.61" x2="121.69" y2="162.14" xlink:href="#linear-gradient"/><linearGradient id="linear-gradient-118" x1="130.34" y1="71.61" x2="130.34" y2="162.14" xlink:href="#linear-gradient"/><linearGradient id="linear-gradient-120" x1="138.99" y1="71.61" x2="138.99" y2="162.14" xlink:href="#linear-gradient"/><linearGradient id="linear-gradient-122" x1="147.64" y1="71.61" x2="147.64" y2="162.14" xlink:href="#linear-gradient"/><linearGradient id="linear-gradient-124" x1="156.28" y1="71.61" x2="156.28" y2="162.14" xlink:href="#linear-gradient"/><linearGradient id="linear-gradient-126" x1="164.93" y1="71.61" x2="164.93" y2="162.14" xlink:href="#linear-gradient"/><linearGradient id="linear-gradient-127" x1="164.93" y1="71.61" x2="164.93" y2="162.13" xlink:href="#linear-gradient"/><linearGradient id="linear-gradient-128" x1="173.58" y1="71.61" x2="173.58" y2="162.14" xlink:href="#linear-gradient"/><linearGradient id="linear-gradient-130" x1="182.23" y1="71.61" x2="182.23" y2="162.14" xlink:href="#linear-gradient"/><linearGradient id="linear-gradient-132" x1="190.87" y1="71.61" x2="190.87" y2="162.14" xlink:href="#linear-gradient"/><linearGradient id="linear-gradient-134" x1="199.52" y1="71.61" x2="199.52" y2="162.14" xlink:href="#linear-gradient"/><linearGradient id="linear-gradient-136" x1="208.17" y1="71.61" x2="208.17" y2="162.14" xlink:href="#linear-gradient"/><linearGradient id="linear-gradient-138" x1="216.82" y1="71.61" x2="216.82" y2="162.14" xlink:href="#linear-gradient"/><linearGradient id="linear-gradient-140" x1="225.47" y1="71.61" x2="225.47" y2="162.14" xlink:href="#linear-gradient"/><linearGradient id="linear-gradient-142" x1="234.11" y1="71.61" x2="234.11" y2="162.14" xlink:href="#linear-gradient"/><linearGradient id="linear-gradient-144" x1="242.76" y1="71.61" x2="242.76" y2="162.14" xlink:href="#linear-gradient"/><linearGradient id="linear-gradient-146" x1="251.41" y1="71.61" x2="251.41" y2="162.14" xlink:href="#linear-gradient"/><linearGradient id="linear-gradient-148" x1="260.06" y1="71.61" x2="260.06" y2="162.14" xlink:href="#linear-gradient"/><linearGradient id="linear-gradient-150" x1="268.7" y1="71.61" x2="268.7" y2="162.14" xlink:href="#linear-gradient"/><linearGradient id="linear-gradient-152" x1="277.35" y1="71.61" x2="277.35" y2="162.14" xlink:href="#linear-gradient"/><linearGradient id="linear-gradient-154" x1="286" y1="71.61" x2="286" y2="162.14" xlink:href="#linear-gradient"/><linearGradient id="linear-gradient-156" x1="294.65" y1="71.61" x2="294.65" y2="162.14" xlink:href="#linear-gradient"/><linearGradient id="linear-gradient-158" x1="303.29" y1="71.61" x2="303.29" y2="162.14" xlink:href="#linear-gradient"/><linearGradient id="linear-gradient-160" x1="311.94" y1="71.61" x2="311.94" y2="162.14" xlink:href="#linear-gradient"/><linearGradient id="linear-gradient-162" x1="320.59" y1="71.61" x2="320.59" y2="162.14" xlink:href="#linear-gradient"/><linearGradient id="linear-gradient-164" x1="329.24" y1="71.61" x2="329.24" y2="162.14" xlink:href="#linear-gradient"/><linearGradient id="linear-gradient-166" x1="337.89" y1="71.61" x2="337.89" y2="162.14" xlink:href="#linear-gradient"/><linearGradient id="linear-gradient-168" x1="346.53" y1="71.61" x2="346.53" y2="162.14" xlink:href="#linear-gradient"/><linearGradient id="linear-gradient-170" x1="355.18" y1="71.61" x2="355.18" y2="162.14" xlink:href="#linear-gradient"/><linearGradient id="linear-gradient-172" x1="363.83" y1="71.61" x2="363.83" y2="162.14" xlink:href="#linear-gradient"/><linearGradient id="linear-gradient-174" x1="372.48" y1="71.61" x2="372.48" y2="162.14" xlink:href="#linear-gradient"/><linearGradient id="linear-gradient-176" x1="381.03" y1="71.61" x2="381.03" y2="162.14" xlink:href="#linear-gradient"/><linearGradient id="linear-gradient-177" x1="0.62" y1="-5.73" x2="0.62" y2="91.92" xlink:href="#linear-gradient"/><linearGradient id="linear-gradient-178" x1="9.27" y1="-5.73" x2="9.27" y2="91.92" xlink:href="#linear-gradient"/><linearGradient id="linear-gradient-180" x1="17.92" y1="-5.73" x2="17.92" y2="91.92" xlink:href="#linear-gradient"/><linearGradient id="linear-gradient-182" x1="26.57" y1="-5.73" x2="26.57" y2="91.92" xlink:href="#linear-gradient"/><linearGradient id="linear-gradient-184" x1="35.22" y1="-5.73" x2="35.22" y2="91.92" xlink:href="#linear-gradient"/><linearGradient id="linear-gradient-186" x1="43.86" y1="-5.73" x2="43.86" y2="91.92" xlink:href="#linear-gradient"/><linearGradient id="linear-gradient-188" x1="52.51" y1="-5.73" x2="52.51" y2="91.92" xlink:href="#linear-gradient"/><linearGradient id="linear-gradient-190" x1="61.16" y1="-5.73" x2="61.16" y2="91.92" xlink:href="#linear-gradient"/><linearGradient id="linear-gradient-192" x1="69.81" y1="-5.73" x2="69.81" y2="91.92" xlink:href="#linear-gradient"/><linearGradient id="linear-gradient-194" x1="78.45" y1="-5.73" x2="78.45" y2="91.92" xlink:href="#linear-gradient"/><linearGradient id="linear-gradient-196" x1="87.1" y1="-5.73" x2="87.1" y2="91.92" xlink:href="#linear-gradient"/><linearGradient id="linear-gradient-198" x1="95.75" y1="-5.73" x2="95.75" y2="91.92" xlink:href="#linear-gradient"/><linearGradient id="linear-gradient-200" x1="104.4" y1="-5.73" x2="104.4" y2="91.92" xlink:href="#linear-gradient"/><linearGradient id="linear-gradient-202" x1="113.04" y1="-5.73" x2="113.04" y2="91.92" xlink:href="#linear-gradient"/><linearGradient id="linear-gradient-204" x1="121.69" y1="-5.73" x2="121.69" y2="91.92" xlink:href="#linear-gradient"/><linearGradient id="linear-gradient-206" x1="130.34" y1="-5.73" x2="130.34" y2="91.92" xlink:href="#linear-gradient"/><linearGradient id="linear-gradient-208" x1="138.99" y1="-5.73" x2="138.99" y2="91.92" xlink:href="#linear-gradient"/><linearGradient id="linear-gradient-210" x1="147.64" y1="-5.73" x2="147.64" y2="91.92" xlink:href="#linear-gradient"/><linearGradient id="linear-gradient-212" x1="156.28" y1="-5.73" x2="156.28" y2="91.92" xlink:href="#linear-gradient"/><linearGradient id="linear-gradient-214" x1="164.93" y1="-5.73" x2="164.93" y2="91.92" xlink:href="#linear-gradient"/><linearGradient id="linear-gradient-216" x1="173.58" y1="-5.73" x2="173.58" y2="91.92" xlink:href="#linear-gradient"/><linearGradient id="linear-gradient-218" x1="182.23" y1="-5.73" x2="182.23" y2="91.92" xlink:href="#linear-gradient"/><linearGradient id="linear-gradient-220" x1="190.87" y1="-5.73" x2="190.87" y2="91.92" xlink:href="#linear-gradient"/><linearGradient id="linear-gradient-222" x1="199.52" y1="-5.73" x2="199.52" y2="91.92" xlink:href="#linear-gradient"/><linearGradient id="linear-gradient-224" x1="208.17" y1="-5.73" x2="208.17" y2="91.92" xlink:href="#linear-gradient"/><linearGradient id="linear-gradient-226" x1="216.82" y1="-5.73" x2="216.82" y2="91.92" xlink:href="#linear-gradient"/><linearGradient id="linear-gradient-228" x1="225.47" y1="-5.73" x2="225.47" y2="91.92" xlink:href="#linear-gradient"/><linearGradient id="linear-gradient-230" x1="234.11" y1="-5.73" x2="234.11" y2="91.92" xlink:href="#linear-gradient"/><linearGradient id="linear-gradient-232" x1="242.76" y1="-5.73" x2="242.76" y2="91.92" xlink:href="#linear-gradient"/><linearGradient id="linear-gradient-234" x1="251.41" y1="-5.73" x2="251.41" y2="91.92" xlink:href="#linear-gradient"/><linearGradient id="linear-gradient-236" x1="260.06" y1="-5.73" x2="260.06" y2="91.92" xlink:href="#linear-gradient"/><linearGradient id="linear-gradient-238" x1="268.7" y1="-5.73" x2="268.7" y2="91.92" xlink:href="#linear-gradient"/><linearGradient id="linear-gradient-240" x1="277.35" y1="-5.73" x2="277.35" y2="91.92" xlink:href="#linear-gradient"/><linearGradient id="linear-gradient-242" x1="286" y1="-5.73" x2="286" y2="91.92" xlink:href="#linear-gradient"/><linearGradient id="linear-gradient-244" x1="294.65" y1="-5.73" x2="294.65" y2="91.92" xlink:href="#linear-gradient"/><linearGradient id="linear-gradient-246" x1="303.29" y1="-5.73" x2="303.29" y2="91.92" xlink:href="#linear-gradient"/><linearGradient id="linear-gradient-248" x1="311.94" y1="-5.73" x2="311.94" y2="91.92" xlink:href="#linear-gradient"/><linearGradient id="linear-gradient-250" x1="320.59" y1="-5.73" x2="320.59" y2="91.92" xlink:href="#linear-gradient"/><linearGradient id="linear-gradient-252" x1="329.24" y1="-5.73" x2="329.24" y2="91.92" xlink:href="#linear-gradient"/><linearGradient id="linear-gradient-254" x1="337.89" y1="-5.73" x2="337.89" y2="91.92" xlink:href="#linear-gradient"/><linearGradient id="linear-gradient-256" x1="346.53" y1="-5.73" x2="346.53" y2="91.92" xlink:href="#linear-gradient"/><linearGradient id="linear-gradient-258" x1="355.18" y1="-5.73" x2="355.18" y2="91.92" xlink:href="#linear-gradient"/><linearGradient id="linear-gradient-260" x1="363.83" y1="-5.73" x2="363.83" y2="91.92" xlink:href="#linear-gradient"/><linearGradient id="linear-gradient-262" x1="372.48" y1="-5.73" x2="372.48" y2="91.92" xlink:href="#linear-gradient"/><linearGradient id="linear-gradient-264" x1="381.03" y1="-5.73" x2="381.03" y2="91.92" xlink:href="#linear-gradient"/></defs><title>Pattern 1</title><g id="Layer_1" data-name="Layer 1"><path class="cls-1" d="M.63,98H0v1.81c.36.66.78,1.4,1.25,2.21V98.4Z"/><path class="cls-2" d="M9.46,106.57H8.65v7.25l1.25,1.82v-9.06Z"/><path class="cls-2" d="M9.46,106.57v-3.71l-.38-.17v3.89Z"/><path class="cls-3" d="M18.11,115.67H17.3v9.87l1.25,1.54V115.67Z"/><path class="cls-3" d="M18.11,115.67v-9.41l-.38-.12v9.53Z"/><path class="cls-4" d="M26.76,122.69h-.81v12.85l1.25,1.31V122.69Z"/><path class="cls-4" d="M26.76,122.69V108.44l-.38-.07v14.32Z"/><path class="cls-5" d="M35.4,130h-.81V144l1.25,1.11V130Z"/><path class="cls-6" d="M35.4,130V109.47l-.38,0V130Z"/><path class="cls-7" d="M44.05,138.36h-.81v12.76l1.25.92V138.36Z"/><path class="cls-7" d="M44.05,138.36v-29l-.38,0v28.95Z"/><path class="cls-8" d="M52.7,141.1h-.81v15.84l1.25.73V141.1Z"/><path class="cls-8" d="M52.7,141.1V108.27l-.38.07V141.1Z"/><path class="cls-9" d="M61.35,136.78h-.81V161.5l1.25.56V136.78Z"/><path class="cls-9" d="M61.35,136.78V106.12l-.38.11v30.54Z"/><path class="cls-10" d="M70,132.26h-.81v32.61l1.25.39v-33Z"/><path class="cls-10" d="M70,132.26V103l-.38.16v29.14Z"/><path class="cls-11" d="M78.64,126.06h-.81v41l1.25.22V126.06Z"/><path class="cls-11" d="M78.64,126.06V98.79l-.38.2v27.07Z"/><path class="cls-12" d="M87.29,120.25h-.81v47.89l1.25.06V120.25Z"/><path class="cls-12" d="M87.29,120.25V93.53l-.38.25v26.47Z"/><path class="cls-13" d="M95.94,115.67h-.81v52.41l1.25-.1V115.67Z"/><path class="cls-13" d="M95.94,115.67V87l-.38.32v28.36Z"/><path class="cls-14" d="M104.58,122.69h-.81v44.23l1.25-.26v-44Z"/><path class="cls-14" d="M104.58,122.69V92.81l-.38-.37v30.26Z"/><path class="cls-15" d="M113.23,130h-.81v34.7l1.25-.42V130Z"/><path class="cls-15" d="M113.23,130V100.44l-.38-.29V130Z"/><path class="cls-16" d="M121.88,135.09h-.81V161.3l1.25-.57V135.09Z"/><path class="cls-16" d="M121.88,135.09V106.14l-.38-.21v29.16Z"/><path class="cls-17" d="M130.53,130h-.81v26.9l1.25-.73V130Z"/><path class="cls-17" d="M130.53,130V110.17l-.38-.14V130Z"/><path class="cls-18" d="M139.18,126.06h-.81v25.28l1.25-.89V126.06Z"/><path class="cls-18" d="M139.18,126.06V112.71l-.38-.08v13.43Z"/><path class="cls-19" d="M147.82,130H147v23.13l1.25,1.07V130Z"/><path class="cls-19" d="M147.82,130v-16l-.38,0V130Z"/><path class="cls-20" d="M156.47,136.78h-.81v22.9l1.25.81V136.78Z"/><path class="cls-20" d="M156.47,136.78V113.9l-.38,0v22.86Z"/><path class="cls-21" d="M165.12,142.93h-.81v21.75l1.25.61V142.93Z"/><path class="cls-22" d="M165.12,142.93V112.75l-.38.07v30.1Z"/><path class="cls-23" d="M173.77,146.82H173v21.53l1.25.43v-22Z"/><path class="cls-23" d="M173.77,146.82V110.56l-.38.12v36.14Z"/><path class="cls-24" d="M182.41,149h-.81v21.75l1.25.25V149Z"/><path class="cls-24" d="M182.41,149V107.36l-.38.16V149Z"/><path class="cls-25" d="M191.06,149h-.81v23l1.25.09V149Z"/><path class="cls-25" d="M191.06,149V103.19l-.38.2V149Z"/><path class="cls-26" d="M199.71,149h-.81v23.15l1.25-.07V149Z"/><path class="cls-26" d="M199.71,149v-51l-.38.24V149Z"/><path class="cls-27" d="M208.36,145.52h-.81V171.2l1.25-.23V145.52Z"/><path class="cls-27" d="M208.36,145.52V91.91l-.38.29v53.32Z"/><path class="cls-28" d="M217,136.78h-.81V169.1l1.25-.39V136.78Z"/><path class="cls-28" d="M217,136.78V84.52l-.38.36v51.9Z"/><path class="cls-29" d="M225.65,132.26h-.81V165.9l1.25-.56V132.26Z"/><path class="cls-29" d="M225.65,132.26V95.2l-.38-.43v37.49Z"/><path class="cls-30" d="M234.3,127.23h-.81v34.34l1.25-.72V127.23Z"/><path class="cls-30" d="M234.3,127.23V103.64l-.38-.32v23.9Z"/><path class="cls-31" d="M242.95,130h-.81v26.15l1.25-.88V130Z"/><path class="cls-31" d="M242.95,130V109.7l-.38-.22V130Z"/><path class="cls-32" d="M251.6,133.39h-.81v16.1l1.25-1.05v-15Z"/><path class="cls-32" d="M251.6,133.39V113.74l-.38-.14v19.79Z"/><path class="cls-33" d="M260.24,135.09h-.81v6.62l1.25-1.23v-5.39Z"/><path class="cls-33" d="M260.24,135.09V116l-.38-.07v19.13Z"/><path class="cls-34" d="M268.89,130h-.81v15.79l1.25.88V130Z"/><path class="cls-34" d="M268.89,130v-13.2h-.38V130Z"/><path class="cls-35" d="M277.54,135.09h-.81v16.2L278,152V135.09Z"/><path class="cls-35" d="M277.54,135.09v-19l-.38.05v18.95Z"/><path class="cls-36" d="M286.19,139.41h-.81v16.34l1.25.56v-16.9Z"/><path class="cls-36" d="M286.19,139.41V114.14l-.38.11v25.16Z"/><path class="cls-37" d="M294.83,142.93H294v16.26l1.25.41V142.93Z"/><path class="cls-37" d="M294.83,142.93V111l-.38.16v31.75Z"/><path class="cls-38" d="M303.48,144.63h-.81v17l1.25.27V144.63Z"/><path class="cls-38" d="M303.48,144.63V106.77l-.38.21v37.64Z"/><path class="cls-39" d="M312.13,145.52h-.81v17.53l1.25.12V145.52Z"/><path class="cls-39" d="M312.13,145.52V101.45l-.38.25v43.82Z"/><path class="cls-40" d="M320.78,145.52H320v17.89l1.25,0V145.52Z"/><path class="cls-40" d="M320.78,145.52V95l-.38.3v50.18Z"/><path class="cls-41" d="M329.43,144.63h-.81v18l1.25-.21v-17.8Z"/><path class="cls-41" d="M329.43,144.63V87.46l-.38.36v56.81Z"/><path class="cls-42" d="M338.07,142.93h-.81v17.73l1.25-.39V142.93Z"/><polygon class="cls-42" points="338.07 142.93 338.07 85.55 337.7 85.19 337.7 142.93 338.07 142.93"/><path class="cls-43" d="M346.72,139.41h-.81v18l1.25-.59V139.41Z"/><polygon class="cls-43" points="346.72 139.41 346.72 93.94 346.35 93.58 346.35 139.41 346.72 139.41"/><path class="cls-44" d="M355.37,135.09h-.81v17.57l1.25-.81V135.09Z"/><polygon class="cls-44" points="355.37 135.09 355.37 102.33 354.99 101.97 354.99 135.09 355.37 135.09"/><path class="cls-45" d="M364,130h-.81v16.39l1.25-1.05V130Z"/><polygon class="cls-45" points="364.02 129.96 364.02 110.72 363.64 110.36 363.64 129.96 364.02 129.96"/><path class="cls-46" d="M372.66,123.17h-.81v15.1l1.25-1.33V123.17Z"/><polygon class="cls-46" points="372.66 123.17 372.66 119.11 372.29 118.75 372.29 123.17 372.66 123.17"/><path class="cls-47" d="M381.12,127.32l-.19-.18v.43Z"/><path class="cls-48" d="M.63,54.85H0v1.81c.36.66.78,1.4,1.25,2.21V55.24Z"/><path class="cls-49" d="M9.46,63.41H8.65v7.25L9.9,72.47V63.41Z"/><path class="cls-49" d="M9.46,63.41V59.7l-.38-.17v3.89Z"/><path class="cls-50" d="M18.11,72.51H17.3v9.87l1.25,1.54V72.51Z"/><path class="cls-50" d="M18.11,72.51V63.1L17.73,63v9.53Z"/><path class="cls-51" d="M26.76,79.53h-.81V92.38l1.25,1.31V79.53Z"/><path class="cls-51" d="M26.76,79.53V65.28l-.38-.07V79.53Z"/><path class="cls-52" d="M35.4,86.8h-.81v14.07L35.84,102V86.8Z"/><path class="cls-53" d="M35.4,86.8V66.31l-.38,0V86.8Z"/><path class="cls-54" d="M44.05,95.2h-.81V108l1.25.92V95.2Z"/><path class="cls-54" d="M44.05,95.2v-29l-.38,0V95.2Z"/><path class="cls-55" d="M52.7,97.94h-.81v15.84l1.25.73V97.94Z"/><path class="cls-55" d="M52.7,97.94V65.1l-.38.07V97.94Z"/><path class="cls-56" d="M61.35,93.62h-.81v24.72l1.25.56V93.62Z"/><path class="cls-56" d="M61.35,93.62V63l-.38.11V93.62Z"/><path class="cls-57" d="M70,89.1h-.81v32.61l1.25.39v-33Z"/><path class="cls-57" d="M70,89.1V59.8l-.38.16V89.1Z"/><path class="cls-58" d="M78.64,82.9h-.81v41l1.25.22V82.9Z"/><path class="cls-58" d="M78.64,82.9V55.63l-.38.2V82.9Z"/><path class="cls-59" d="M87.29,77.09h-.81V125l1.25.06V77.09Z"/><path class="cls-59" d="M87.29,77.09V50.37l-.38.25V77.09Z"/><path class="cls-60" d="M95.94,72.51h-.81v52.41l1.25-.1V72.51Z"/><path class="cls-60" d="M95.94,72.51V43.84l-.38.32V72.51Z"/><path class="cls-61" d="M104.58,79.53h-.81v44.23l1.25-.26v-44Z"/><path class="cls-61" d="M104.58,79.53V49.65l-.38-.37V79.53Z"/><path class="cls-62" d="M113.23,86.8h-.81v34.7l1.25-.42V86.8Z"/><path class="cls-62" d="M113.23,86.8V57.28l-.38-.29V86.8Z"/><path class="cls-63" d="M121.88,91.93h-.81v26.21l1.25-.57V91.93Z"/><path class="cls-63" d="M121.88,91.93V63l-.38-.21V91.93Z"/><path class="cls-64" d="M130.53,86.8h-.81v26.9L131,113V86.8Z"/><path class="cls-64" d="M130.53,86.8V67l-.38-.14V86.8Z"/><path class="cls-65" d="M139.18,82.9h-.81v25.28l1.25-.89V82.9Z"/><path class="cls-65" d="M139.18,82.9V69.55l-.38-.08V82.9Z"/><path class="cls-66" d="M147.82,86.8H147v23.13l1.25,1.07V86.8Z"/><path class="cls-66" d="M147.82,86.8v-16l-.38,0V86.8Z"/><path class="cls-67" d="M156.47,93.62h-.81v22.9l1.25.81V93.62Z"/><path class="cls-67" d="M156.47,93.62V70.73l-.38,0V93.62Z"/><path class="cls-68" d="M165.12,99.77h-.81v21.75l1.25.61V99.77Z"/><path class="cls-69" d="M165.12,99.77V69.59l-.38.07v30.1Z"/><path class="cls-70" d="M173.77,103.65H173v21.53l1.25.43v-22Z"/><path class="cls-70" d="M173.77,103.65V67.39l-.38.12v36.14Z"/><path class="cls-71" d="M182.41,105.88h-.81v21.75l1.25.25v-22Z"/><path class="cls-71" d="M182.41,105.88V64.2l-.38.16v41.52Z"/><path class="cls-72" d="M191.06,105.88h-.81v23l1.25.09V105.88Z"/><path class="cls-72" d="M191.06,105.88V60l-.38.2v45.64Z"/><path class="cls-73" d="M199.71,105.88h-.81V129l1.25-.07V105.88Z"/><path class="cls-73" d="M199.71,105.88v-51l-.38.24v50.74Z"/><path class="cls-74" d="M208.36,102.36h-.81V128l1.25-.23V102.36Z"/><path class="cls-74" d="M208.36,102.36V48.75L208,49v53.32Z"/><path class="cls-75" d="M217,93.62h-.81v32.33l1.25-.39V93.62Z"/><path class="cls-75" d="M217,93.62V41.35l-.38.36v51.9Z"/><path class="cls-76" d="M225.65,89.1h-.81v33.64l1.25-.56V89.1Z"/><path class="cls-76" d="M225.65,89.1V52l-.38-.43V89.1Z"/><path class="cls-77" d="M234.3,84.07h-.81v34.34l1.25-.72V84.07Z"/><path class="cls-77" d="M234.3,84.07V60.48l-.38-.32v23.9Z"/><path class="cls-78" d="M242.95,86.8h-.81v26.15l1.25-.88V86.8Z"/><path class="cls-78" d="M242.95,86.8V66.54l-.38-.22V86.8Z"/><path class="cls-79" d="M251.6,90.23h-.81v16.1l1.25-1.05v-15Z"/><path class="cls-79" d="M251.6,90.23V70.58l-.38-.14V90.23Z"/><path class="cls-80" d="M260.24,91.93h-.81v6.62l1.25-1.23V91.93Z"/><path class="cls-80" d="M260.24,91.93V72.86l-.38-.07V91.93Z"/><path class="cls-81" d="M268.89,86.8h-.81v15.79l1.25.88V86.8Z"/><path class="cls-81" d="M268.89,86.8V73.59h-.38V86.8Z"/><path class="cls-82" d="M277.54,91.93h-.81v16.2l1.25.71V91.93Z"/><path class="cls-82" d="M277.54,91.93v-19l-.38.05V91.93Z"/><path class="cls-83" d="M286.19,96.25h-.81v16.34l1.25.56V96.25Z"/><path class="cls-83" d="M286.19,96.25V71l-.38.11V96.25Z"/><path class="cls-84" d="M294.83,99.77H294V116l1.25.41V99.77Z"/><path class="cls-84" d="M294.83,99.77V67.86l-.38.16V99.77Z"/><path class="cls-85" d="M303.48,101.46h-.81v17l1.25.27V101.46Z"/><path class="cls-85" d="M303.48,101.46V63.61l-.38.21v37.64Z"/><path class="cls-86" d="M312.13,102.36h-.81v17.53l1.25.12V102.36Z"/><path class="cls-86" d="M312.13,102.36V58.29l-.38.25v43.82Z"/><path class="cls-87" d="M320.78,102.36H320v17.89l1.25,0V102.36Z"/><path class="cls-87" d="M320.78,102.36V51.88l-.38.3v50.18Z"/><path class="cls-88" d="M329.43,101.46h-.81v18l1.25-.21v-17.8Z"/><path class="cls-88" d="M329.43,101.46V44.3l-.38.36v56.81Z"/><path class="cls-89" d="M338.07,99.77h-.81v17.73l1.25-.39V99.77Z"/><polygon class="cls-89" points="338.07 99.77 338.07 42.39 337.7 42.03 337.7 99.77 338.07 99.77"/><path class="cls-90" d="M346.72,96.25h-.81v18l1.25-.59V96.25Z"/><polygon class="cls-90" points="346.72 96.25 346.72 50.78 346.35 50.42 346.35 96.25 346.72 96.25"/><path class="cls-91" d="M355.37,91.93h-.81V109.5l1.25-.81V91.93Z"/><polygon class="cls-91" points="355.37 91.93 355.37 59.17 354.99 58.81 354.99 91.93 355.37 91.93"/><path class="cls-92" d="M364,86.8h-.81v16.39l1.25-1.05V86.8Z"/><polygon class="cls-92" points="364.02 86.8 364.02 67.56 363.64 67.2 363.64 86.8 364.02 86.8"/><path class="cls-93" d="M372.66,80h-.81V95.1l1.25-1.33V80Z"/><polygon class="cls-93" points="372.66 80 372.66 75.95 372.29 75.59 372.29 80 372.66 80"/><path class="cls-94" d="M381.12,84.16l-.19-.18v.43Z"/><path class="cls-95" d="M.63,13.5H0v1.81c.36.66.78,1.4,1.25,2.21V13.89Z"/><path class="cls-96" d="M9.46,22.05H8.65V29.3L9.9,31.12V22.05Z"/><path class="cls-96" d="M9.46,22.05V18.34l-.38-.17v3.89Z"/><path class="cls-97" d="M18.11,31.16H17.3V41l1.25,1.54V31.16Z"/><path class="cls-97" d="M18.11,31.16V21.75l-.38-.12v9.53Z"/><path class="cls-98" d="M26.76,38.18h-.81V51l1.25,1.31V38.18Z"/><path class="cls-98" d="M26.76,38.18V23.93l-.38-.07V38.18Z"/><path class="cls-99" d="M35.4,45.44h-.81V59.51l1.25,1.11V45.44Z"/><path class="cls-99" d="M35.4,45.44V25l-.38,0V45.44Z"/><path class="cls-100" d="M44.05,53.85h-.81V66.61l1.25.92V53.85Z"/><path class="cls-100" d="M44.05,53.85v-29l-.38,0V53.85Z"/><path class="cls-101" d="M52.7,56.58h-.81V72.42l1.25.73V56.58Z"/><path class="cls-101" d="M52.7,56.58V23.75l-.38.07V56.58Z"/><path class="cls-102" d="M61.35,52.26h-.81V77l1.25.56V52.26Z"/><path class="cls-102" d="M61.35,52.26V21.6l-.38.11V52.26Z"/><path class="cls-103" d="M70,47.74h-.81V80.35l1.25.39v-33Z"/><path class="cls-103" d="M70,47.74V18.45l-.38.16V47.74Z"/><path class="cls-104" d="M78.64,41.55h-.81v41l1.25.22V41.55Z"/><path class="cls-104" d="M78.64,41.55V14.27l-.38.2V41.55Z"/><path class="cls-105" d="M87.29,35.74h-.81V83.62l1.25.06V35.74Z"/><path class="cls-105" d="M87.29,35.74V9l-.38.25V35.74Z"/><path class="cls-106" d="M95.94,31.16h-.81V83.57l1.25-.1V31.16Z"/><path class="cls-106" d="M95.94,31.16V2.48l-.38.32V31.16Z"/><path class="cls-107" d="M104.58,38.18h-.81V82.4l1.25-.26v-44Z"/><path class="cls-107" d="M104.58,38.18V8.29l-.38-.37V38.18Z"/><path class="cls-108" d="M113.23,45.44h-.81v34.7l1.25-.42V45.44Z"/><path class="cls-108" d="M113.23,45.44V15.92l-.38-.29V45.44Z"/><path class="cls-109" d="M121.88,50.57h-.81V76.79l1.25-.57V50.57Z"/><path class="cls-109" d="M121.88,50.57V21.63l-.38-.21V50.57Z"/><path class="cls-110" d="M130.53,45.44h-.81v26.9l1.25-.73V45.44Z"/><path class="cls-110" d="M130.53,45.44V25.65l-.38-.14V45.44Z"/><path class="cls-111" d="M139.18,41.55h-.81V66.83l1.25-.89V41.55Z"/><path class="cls-111" d="M139.18,41.55V28.19l-.38-.08V41.55Z"/><path class="cls-112" d="M147.82,45.44H147V68.57l1.25,1.07V45.44Z"/><path class="cls-112" d="M147.82,45.44v-16l-.38,0V45.44Z"/><path class="cls-113" d="M156.47,52.26h-.81v22.9l1.25.81V52.26Z"/><path class="cls-113" d="M156.47,52.26V29.38l-.38,0V52.26Z"/><path class="cls-114" d="M165.12,58.41h-.81V80.17l1.25.61V58.41Z"/><path class="cls-114" d="M165.12,58.41V28.24l-.38.07v30.1Z"/><path class="cls-115" d="M173.77,62.3H173V83.83l1.25.43v-22Z"/><path class="cls-115" d="M173.77,62.3V26l-.38.12V62.3Z"/><path class="cls-116" d="M182.41,64.52h-.81V86.27l1.25.25v-22Z"/><path class="cls-116" d="M182.41,64.52V22.84L182,23V64.52Z"/><path class="cls-117" d="M191.06,64.52h-.81v23l1.25.09V64.52Z"/><path class="cls-117" d="M191.06,64.52V18.68l-.38.2V64.52Z"/><path class="cls-118" d="M199.71,64.52h-.81V87.67l1.25-.07V64.52Z"/><path class="cls-118" d="M199.71,64.52v-51l-.38.24V64.52Z"/><path class="cls-119" d="M208.36,61h-.81V86.69l1.25-.23V61Z"/><path class="cls-119" d="M208.36,61V7.39l-.38.29V61Z"/><path class="cls-120" d="M217,52.26h-.81V84.59l1.25-.39V52.26Z"/><path class="cls-120" d="M217,52.26V0l-.38.36v51.9Z"/><path class="cls-121" d="M225.65,47.74h-.81V81.38l1.25-.56V47.74Z"/><path class="cls-121" d="M225.65,47.74V10.69l-.38-.43V47.74Z"/><path class="cls-122" d="M234.3,42.71h-.81V77.05l1.25-.72V42.71Z"/><path class="cls-122" d="M234.3,42.71V19.13l-.38-.32v23.9Z"/><path class="cls-123" d="M242.95,45.44h-.81V71.59l1.25-.88V45.44Z"/><path class="cls-123" d="M242.95,45.44V25.19l-.38-.22V45.44Z"/><path class="cls-124" d="M251.6,48.88h-.81V65L252,63.92v-15Z"/><path class="cls-124" d="M251.6,48.88V29.23l-.38-.14V48.88Z"/><path class="cls-125" d="M260.24,50.57h-.81v6.62L260.68,56V50.57Z"/><path class="cls-125" d="M260.24,50.57V31.51l-.38-.07V50.57Z"/><path class="cls-126" d="M268.89,45.44h-.81V61.23l1.25.88V45.44Z"/><path class="cls-126" d="M268.89,45.44V32.24h-.38V45.44Z"/><path class="cls-127" d="M277.54,50.57h-.81v16.2l1.25.71V50.57Z"/><path class="cls-127" d="M277.54,50.57v-19l-.38.05V50.57Z"/><path class="cls-128" d="M286.19,54.9h-.81V71.23l1.25.56V54.9Z"/><path class="cls-128" d="M286.19,54.9V29.63l-.38.11V54.9Z"/><path class="cls-129" d="M294.83,58.41H294V74.68l1.25.41V58.41Z"/><path class="cls-129" d="M294.83,58.41V26.5l-.38.16V58.41Z"/><path class="cls-130" d="M303.48,60.11h-.81v17l1.25.27V60.11Z"/><path class="cls-130" d="M303.48,60.11V22.26l-.38.21V60.11Z"/><path class="cls-131" d="M312.13,61h-.81V78.54l1.25.12V61Z"/><path class="cls-131" d="M312.13,61V16.93l-.38.25V61Z"/><path class="cls-132" d="M320.78,61H320V78.89l1.25,0V61Z"/><path class="cls-132" d="M320.78,61V10.52l-.38.3V61Z"/><path class="cls-133" d="M329.43,60.11h-.81v18l1.25-.21V60.11Z"/><path class="cls-133" d="M329.43,60.11V2.94l-.38.36V60.11Z"/><path class="cls-134" d="M338.07,58.41h-.81V76.14l1.25-.39V58.41Z"/><polygon class="cls-134" points="338.07 58.41 338.07 1.04 337.7 0.67 337.7 58.41 338.07 58.41"/><path class="cls-135" d="M346.72,54.9h-.81v18l1.25-.59V54.9Z"/><polygon class="cls-135" points="346.72 54.9 346.72 9.43 346.35 9.06 346.35 54.9 346.72 54.9"/><path class="cls-136" d="M355.37,50.57h-.81V68.14l1.25-.81V50.57Z"/><polygon class="cls-136" points="355.37 50.58 355.37 17.82 354.99 17.45 354.99 50.58 355.37 50.58"/><path class="cls-137" d="M364,45.44h-.81V61.84l1.25-1.05V45.44Z"/><polygon class="cls-137" points="364.02 45.44 364.02 26.21 363.64 25.84 363.64 45.44 364.02 45.44"/><path class="cls-138" d="M372.66,38.65h-.81v15.1l1.25-1.33V38.65Z"/><polygon class="cls-138" points="372.66 38.65 372.66 34.59 372.29 34.23 372.29 38.65 372.66 38.65"/><path class="cls-139" d="M381.12,42.8l-.19-.18V43Z"/></g></svg>