<svg id="logosandtypes_com" xmlns="http://www.w3.org/2000/svg" viewBox="0 0 150 150"><style>.st0{fill:none}.st4{fill:#8a5b02}.st5{fill:#d6be77}.st9{fill:#a28347}.st12{fill:#9e8949}</style><path class="st0" d="M0 0h150v150H0V0z" id="Layer_3"/><g id="logosandtypes_com"><radialGradient id="SVGID_1_" cx="4615.9199" cy="-6976.8613" r="94.4712" gradientTransform="matrix(-.7431 0 0 -.7407 3491.2766 -5061.2354)" gradientUnits="userSpaceOnUse"><stop offset="0" stop-color="#7e5200"/><stop offset=".1548" stop-color="#815503"/><stop offset=".2775" stop-color="#895f0c"/><stop offset=".3892" stop-color="#97701b"/><stop offset=".4944" stop-color="#aa8730"/><stop offset=".5941" stop-color="#c3a64b"/><stop offset=".6892" stop-color="#e1ca6b"/><stop offset=".9537" stop-color="#e1ca6b"/><stop offset=".9955" stop-color="#e1ca6b"/></radialGradient><path d="M56.4 104.1v-.4l.4.4c1.9 0 10.1-.9 10.1-13.9V56.8s.8-12.4-10.5-12.4V41h18.4V18.9c-11.3 8.6-35.3 22.9-35.3 55.5 0 36 32.6 51 35.3 53.7v-21.8H56.4v-2.2z" fill="url(#SVGID_1_)"/><linearGradient id="SVGID_2_" gradientUnits="userSpaceOnUse" x1="48.6234" y1="-6374.959" x2="104.9438" y2="-6318.6396" gradientTransform="matrix(1 0 0 -1 0 -6273.0679)"><stop offset="0" stop-color="#7e5200"/><stop offset=".0955" stop-color="#946d1e"/><stop offset=".2674" stop-color="#b8994e"/><stop offset=".3987" stop-color="#ceb46c"/><stop offset=".473" stop-color="#d6be77"/><stop offset=".6248" stop-color="#d4bb75"/><stop offset=".7172" stop-color="#cdb36d"/><stop offset=".7936" stop-color="#c1a55f"/><stop offset=".8613" stop-color="#b1904c"/><stop offset=".9233" stop-color="#9b7633"/><stop offset=".9804" stop-color="#815615"/><stop offset=".9865" stop-color="#7e5211"/></linearGradient><path d="M74.8 18.9V41h17.6v3.4c-10.5 0-10.5 12.4-10.5 12.4v33.4c0 13 8.3 13.9 10.1 13.9l.4-.4V106.4H74.8v21.8s.8-.8 2.6-1.9C85.7 121 110 106 110 74.5c.1-33.5-23.9-47-35.2-55.6z" fill="url(#SVGID_2_)"/><radialGradient id="SVGID_3_" cx="-3558.4316" cy="-8515.1621" r="115.9188" gradientTransform="matrix(.6949 -.7257 -.5049 -.4804 -1775.106 -6630.4761)" gradientUnits="userSpaceOnUse"><stop offset="0" stop-color="#fffbff"/><stop offset=".1613" stop-color="#fffba3"/><stop offset=".3188" stop-color="#efe38a"/><stop offset=".5402" stop-color="#d5ba60"/><stop offset=".7536" stop-color="#b39745"/><stop offset="1" stop-color="#876922"/></radialGradient><path d="M74.8 20c-10.5 7.9-34.9 22.1-34.9 53.7 0 35.3 32.3 49.5 34.9 52.2 0 0 .8-.8 2.6-1.9 7.9-5.3 32.3-19.5 32.3-50.3-.7-31.2-23.6-45-34.9-53.7zm17.3 22.9s-11.3 0-11.3 13.9v34.5c0 3.4 1.1 12.4 11.3 13.1v1.1H57.2v-1.1c9.8-.8 11.3-9 11.3-13.1v-1.1-33.4c0-13.9-11.3-13.9-11.3-13.9v-1.1h34.9v1.1z" fill="url(#SVGID_3_)"/><path class="st4" d="M56.4 44.4l.8-1.5v-1.1l-.8-.8z"/><path class="st5" d="M57.2 105.6v-1.2l-.8-.7v2.6z"/><linearGradient id="SVGID_4_" gradientUnits="userSpaceOnUse" x1="56.3693" y1="-6379.0171" x2="92.1831" y2="-6379.0171" gradientTransform="matrix(1 0 0 -1 0 -6273.0679)"><stop offset="0" stop-color="#ad9a49"/><stop offset=".054" stop-color="#b29e4e"/><stop offset=".4133" stop-color="#ccb56c"/><stop offset=".6171" stop-color="#d6be77"/></linearGradient><path fill="url(#SVGID_4_)" d="M92.5 106.3H56.4l.8-.7h34.5z"/><linearGradient id="SVGID_5_" gradientUnits="userSpaceOnUse" x1="56.3682" y1="-6347.127" x2="68.2746" y2="-6347.127" gradientTransform="matrix(1 0 0 -1 0 -6273.0679)"><stop offset="0" stop-color="#d6be77"/><stop offset=".6532" stop-color="#744b00"/><stop offset=".7793" stop-color="#8a5b02"/><stop offset=".8018" stop-color="#91640d"/><stop offset=".8408" stop-color="#a37c29"/><stop offset=".8912" stop-color="#c1a256"/><stop offset=".9234" stop-color="#d6be77"/></linearGradient><path d="M56.4 44.4l.8-1.1s11.3 0 11.3 13.9v34.5c0 3.4-1.1 12.4-11.3 13.1l-.8-.8s10.5.8 10.5-13.9V56.7s.8-12.3-10.5-12.3z" fill="url(#SVGID_5_)"/><linearGradient id="SVGID_6_" gradientUnits="userSpaceOnUse" x1="-5658.3784" y1="-6347.127" x2="-5646.4707" y2="-6347.127" gradientTransform="rotate(180 -2782.7917 -3136.534)"><stop offset=".2748" stop-color="#744b00"/><stop offset=".354" stop-color="#7b5309"/><stop offset=".4842" stop-color="#8e6922"/><stop offset=".6495" stop-color="#ad8d4a"/><stop offset=".8412" stop-color="#d7bf82"/><stop offset=".9234" stop-color="#ebd69c"/></linearGradient><path d="M92.5 44.4l-.8-1.1s-11.3 0-11.3 13.9v34.5c0 3.4 1.1 12.4 11.3 13.1l.8-.8S82 104.8 82 90.1V56.7s-.1-12.3 10.5-12.3z" fill="url(#SVGID_6_)"/><path class="st5" d="M92.5 44.4l-.8-1.5v-1.1l.8-.8zM91.7 105.6v-1.2l.8-.7v2.6z"/><path class="st9" d="M74.8 133.3c-9-7.1-39.4-22.9-39.4-59.3s30.8-52.2 39.4-59.3V9.9c-9 7.9-43.1 24.8-43.1 64.2s34.1 56.3 43.1 64.2v-5zM74.8 14.8c1.4-1.2 1.2-2.8 0-4.9M74.8 138.2c1.1-1.5 1.1-3.1 0-4.9"/><linearGradient id="SVGID_7_" gradientUnits="userSpaceOnUse" x1="-4286.9849" y1="-6313.7202" x2="-4220.4121" y2="-6380.293" gradientTransform="rotate(180 -2088.2 -3136.534)"><stop offset=".009" stop-color="#593508"/><stop offset=".7114" stop-color="#5e3d1f"/><stop offset="1" stop-color="#61412a"/></linearGradient><path d="M74.8 133.3c9-7.1 39.4-22.9 39.4-59.3S83.4 21.9 74.8 14.8V9.9c9.8 7.9 43.1 24.8 43.1 64.2s-34.1 56.3-43.1 64.2v-5z" fill="url(#SVGID_7_)"/><path class="st0" d="M84.3 46.4c3.3-3.1 7.4-3.1 7.4-3.1l.8 1.1-.7-1.5c-1.2.1-4.8.6-7.5 3.5z"/><radialGradient id="SVGID_8_" cx="4615.9199" cy="-6976.8613" r="94.4712" gradientTransform="matrix(-.7431 0 0 -.7407 3491.2766 -5061.2354)" gradientUnits="userSpaceOnUse"><stop offset="0" stop-color="#7e5200"/><stop offset=".1548" stop-color="#815503"/><stop offset=".2775" stop-color="#895f0c"/><stop offset=".3892" stop-color="#97701b"/><stop offset=".4944" stop-color="#aa8730"/><stop offset=".5941" stop-color="#c3a64b"/><stop offset=".6892" stop-color="#e1ca6b"/><stop offset=".9537" stop-color="#e1ca6b"/><stop offset=".9955" stop-color="#e1ca6b"/></radialGradient><path d="M68.4 57.2v-.4c0-13.9-11.3-13.9-11.3-13.9l-.8 1.5.8-1.1c.1 0 11.3 0 11.3 13.9z" fill="url(#SVGID_8_)"/><path class="st12" d="M91.7 41.8l.8-.8H74.8v.8z"/><path class="st12" d="M57.2 41.8h17.6V41H56.4z"/><path class="st4" d="M57.2 42.5l-.8-1.5v3.4l.8-1.5z"/><path class="st4" d="M57.2 41.8l-.8-.8.8 1.5z"/><path class="st5" d="M56.4 104.1v2.2l.8-.7v-.8zM56.8 104.1l-.4-.4v.4h.4z"/><linearGradient id="SVGID_9_" gradientUnits="userSpaceOnUse" x1="56.3693" y1="-6379.0171" x2="92.1831" y2="-6379.0171" gradientTransform="matrix(1 0 0 -1 0 -6273.0679)"><stop offset="0" stop-color="#ad9a49"/><stop offset=".054" stop-color="#b29e4e"/><stop offset=".4133" stop-color="#ccb56c"/><stop offset=".6171" stop-color="#d6be77"/></linearGradient><path fill="url(#SVGID_9_)" d="M74.8 105.6v.7h17.7l-.8-.7z"/><radialGradient id="SVGID_10_" cx="4615.9199" cy="-6976.8613" r="94.4712" gradientTransform="matrix(-.7431 0 0 -.7407 3491.2766 -5061.2354)" gradientUnits="userSpaceOnUse"><stop offset="0" stop-color="#7e5200"/><stop offset=".1548" stop-color="#815503"/><stop offset=".2775" stop-color="#895f0c"/><stop offset=".3892" stop-color="#97701b"/><stop offset=".4944" stop-color="#aa8730"/><stop offset=".5941" stop-color="#c3a64b"/><stop offset=".6892" stop-color="#e1ca6b"/><stop offset=".9537" stop-color="#e1ca6b"/><stop offset=".9955" stop-color="#e1ca6b"/></radialGradient><path fill="url(#SVGID_10_)" d="M57.2 105.6l-.8.7h18.4v-.7z"/><linearGradient id="SVGID_11_" gradientUnits="userSpaceOnUse" x1="56.3693" y1="-6379.0171" x2="92.1831" y2="-6379.0171" gradientTransform="matrix(1 0 0 -1 0 -6273.0679)"><stop offset="0" stop-color="#ad9a49"/><stop offset=".054" stop-color="#b29e4e"/><stop offset=".4133" stop-color="#ccb56c"/><stop offset=".6171" stop-color="#d6be77"/></linearGradient><path fill="url(#SVGID_11_)" d="M57.2 105.6l-.8.7h18.4v-.7z"/><radialGradient id="SVGID_12_" cx="4615.9199" cy="-6976.8613" r="94.4712" gradientTransform="matrix(-.7431 0 0 -.7407 3491.2766 -5061.2354)" gradientUnits="userSpaceOnUse"><stop offset="0" stop-color="#7e5200"/><stop offset=".1548" stop-color="#815503"/><stop offset=".2775" stop-color="#895f0c"/><stop offset=".3892" stop-color="#97701b"/><stop offset=".4944" stop-color="#aa8730"/><stop offset=".5941" stop-color="#c3a64b"/><stop offset=".6892" stop-color="#e1ca6b"/><stop offset=".9537" stop-color="#e1ca6b"/><stop offset=".9955" stop-color="#e1ca6b"/></radialGradient><path d="M68.4 91.3v-.8-.4-33c0-13.9-11.3-13.9-11.3-13.9l-.8 1.1c11.3 0 10.5 12.4 10.5 12.4v33.4c0 13-8.3 13.9-10.1 13.9l.4.4c9.8-.7 11.3-9 11.3-13.1z" fill="url(#SVGID_12_)"/><linearGradient id="SVGID_13_" gradientUnits="userSpaceOnUse" x1="56.3682" y1="-6346.939" x2="68.2746" y2="-6346.939" gradientTransform="matrix(1 0 0 -1 0 -6273.0679)"><stop offset="0" stop-color="#d6be77"/><stop offset=".6532" stop-color="#744b00"/><stop offset=".7793" stop-color="#8a5b02"/><stop offset=".8018" stop-color="#91640d"/><stop offset=".8408" stop-color="#a37c29"/><stop offset=".8912" stop-color="#c1a256"/><stop offset=".9234" stop-color="#d6be77"/></linearGradient><path d="M68.4 91.3v-.8-.4-33c0-13.9-11.3-13.9-11.3-13.9l-.8 1.1c11.3 0 10.5 12.4 10.5 12.4v33.4c0 13-8.3 13.9-10.1 13.9l.4.4c9.8-.7 11.3-9 11.3-13.1z" fill="url(#SVGID_13_)"/><path class="st5" d="M57.2 104.4l-.4-.4h-.4l.8.8v-.4z"/><linearGradient id="SVGID_14_" gradientUnits="userSpaceOnUse" x1="56.3682" y1="-6377.5166" x2="68.2746" y2="-6377.5166" gradientTransform="matrix(1 0 0 -1 0 -6273.0679)"><stop offset="0" stop-color="#d6be77"/><stop offset=".6532" stop-color="#744b00"/><stop offset=".7793" stop-color="#8a5b02"/><stop offset=".8018" stop-color="#91640d"/><stop offset=".8408" stop-color="#a37c29"/><stop offset=".8912" stop-color="#c1a256"/><stop offset=".9234" stop-color="#d6be77"/></linearGradient><path d="M57.2 104.4l-.4-.4h-.4l.8.8v-.4z" fill="url(#SVGID_14_)"/><linearGradient id="SVGID_15_" gradientUnits="userSpaceOnUse" x1="-5658.3784" y1="-6346.9175" x2="-5646.4707" y2="-6346.9175" gradientTransform="rotate(180 -2782.7917 -3136.534)"><stop offset=".2748" stop-color="#744b00"/><stop offset=".354" stop-color="#7b5309"/><stop offset=".4842" stop-color="#8e6922"/><stop offset=".6495" stop-color="#ad8d4a"/><stop offset=".8412" stop-color="#d7bf82"/><stop offset=".9234" stop-color="#ebd69c"/></linearGradient><path d="M92.5 44.4l-.8-1.1s-4.2 0-7.4 3.1c-1.9 2-3.5 5.3-3.5 10.4v34.5c0 3.3 1.1 12.2 10.9 13.1l.3-.3c-1.9 0-10.1-.9-10.1-13.9V56.8s0-12.4 10.6-12.4z" fill="url(#SVGID_15_)"/><path class="st5" d="M92.1 42.9h-.4l.7 1.5V41l-.4.8v1.1z"/><path class="st5" d="M92.1 41.8l.4-.8-.8.8zM92.5 104.1v-.4l-.4.4h.4zM92.1 105.6h-.4l.8.7v-2.2l-.4.3z"/><path class="st5" d="M92.1 104.4l.4-.4h-.4l-.3.3c.1.1.2.1.3.1z"/><g><path class="st0" d="M68.4 57.2v-.4c0-13.9-11.3-13.9-11.3-13.9l-.8 1.5.8-1.1c.1 0 11.3 0 11.3 13.9z"/><linearGradient id="SVGID_16_" gradientUnits="userSpaceOnUse" x1="40.2564" y1="-6366.5918" x2="96.5768" y2="-6310.2725" gradientTransform="matrix(1 0 0 -1 0 -6273.0679)"><stop offset="0" stop-color="#7e5200"/><stop offset=".0955" stop-color="#946d1e"/><stop offset=".2674" stop-color="#b8994e"/><stop offset=".3987" stop-color="#ceb46c"/><stop offset=".473" stop-color="#d6be77"/><stop offset=".6248" stop-color="#d4bb75"/><stop offset=".7172" stop-color="#cdb36d"/><stop offset=".7936" stop-color="#c1a55f"/><stop offset=".8613" stop-color="#b1904c"/><stop offset=".9233" stop-color="#9b7633"/><stop offset=".9804" stop-color="#815615"/><stop offset=".9865" stop-color="#7e5211"/></linearGradient><path d="M84.3 46.4c3.3-3.1 7.4-3.1 7.4-3.1l.8 1.1-.7-1.5c-1.2.1-4.8.6-7.5 3.5z" fill="url(#SVGID_16_)"/><path class="st12" d="M74.8 41.8V41H56.4l.8.8h17.6zM91.7 41.8l.8-.8H74.8v.8h16.9z"/><path class="st4" d="M57.2 42.5l-.8-1.5v3.4l.8-1.5z"/><path class="st4" d="M57.2 41.8l-.8-.8.8 1.5z"/><path class="st5" d="M57.2 104.8l-.8-.7v2.2l.8-.7zM56.8 104.1l-.4-.4v.4h.4z"/><linearGradient id="SVGID_17_" gradientUnits="userSpaceOnUse" x1="56.3693" y1="-6379.0171" x2="92.1831" y2="-6379.0171" gradientTransform="matrix(1 0 0 -1 0 -6273.0679)"><stop offset="0" stop-color="#ad9a49"/><stop offset=".054" stop-color="#b29e4e"/><stop offset=".4133" stop-color="#ccb56c"/><stop offset=".6171" stop-color="#d6be77"/></linearGradient><path d="M57.2 105.6l-.8.8h18.4v-.8H57.2z" fill="url(#SVGID_17_)"/><linearGradient id="SVGID_18_" gradientUnits="userSpaceOnUse" x1="68.1571" y1="-6394.4932" x2="124.4775" y2="-6338.1738" gradientTransform="matrix(1 0 0 -1 0 -6273.0679)"><stop offset="0" stop-color="#7e5200"/><stop offset=".0955" stop-color="#946d1e"/><stop offset=".2674" stop-color="#b8994e"/><stop offset=".3987" stop-color="#ceb46c"/><stop offset=".473" stop-color="#d6be77"/><stop offset=".6248" stop-color="#d4bb75"/><stop offset=".7172" stop-color="#cdb36d"/><stop offset=".7936" stop-color="#c1a55f"/><stop offset=".8613" stop-color="#b1904c"/><stop offset=".9233" stop-color="#9b7633"/><stop offset=".9804" stop-color="#815615"/><stop offset=".9865" stop-color="#7e5211"/></linearGradient><path d="M91.7 105.6H74.8v.8h17.6l-.7-.8z" fill="url(#SVGID_18_)"/><linearGradient id="SVGID_19_" gradientUnits="userSpaceOnUse" x1="56.3693" y1="-6379.0171" x2="92.1831" y2="-6379.0171" gradientTransform="matrix(1 0 0 -1 0 -6273.0679)"><stop offset="0" stop-color="#ad9a49"/><stop offset=".054" stop-color="#b29e4e"/><stop offset=".4133" stop-color="#ccb56c"/><stop offset=".6171" stop-color="#d6be77"/></linearGradient><path d="M91.7 105.6H74.8v.8h17.6l-.7-.8z" fill="url(#SVGID_19_)"/><linearGradient id="SVGID_20_" gradientUnits="userSpaceOnUse" x1="56.3682" y1="-6346.939" x2="68.2746" y2="-6346.939" gradientTransform="matrix(1 0 0 -1 0 -6273.0679)"><stop offset="0" stop-color="#d6be77"/><stop offset=".6532" stop-color="#744b00"/><stop offset=".7793" stop-color="#8a5b02"/><stop offset=".8018" stop-color="#91640d"/><stop offset=".8408" stop-color="#a37c29"/><stop offset=".8912" stop-color="#c1a256"/><stop offset=".9234" stop-color="#d6be77"/></linearGradient><path d="M68.4 91.3v-.8-.4-33c0-13.9-11.3-13.9-11.3-13.9l-.8 1.1c11.3 0 10.5 12.4 10.5 12.4v33.4c0 13-8.3 13.9-10.1 13.9l.4.4c9.8-.7 11.3-9 11.3-13.1z" fill="url(#SVGID_20_)"/><path class="st5" d="M57.2 104.4l-.4-.4h-.4l.8.8v-.4z"/><linearGradient id="SVGID_21_" gradientUnits="userSpaceOnUse" x1="56.3682" y1="-6377.5166" x2="68.2746" y2="-6377.5166" gradientTransform="matrix(1 0 0 -1 0 -6273.0679)"><stop offset="0" stop-color="#d6be77"/><stop offset=".6532" stop-color="#744b00"/><stop offset=".7793" stop-color="#8a5b02"/><stop offset=".8018" stop-color="#91640d"/><stop offset=".8408" stop-color="#a37c29"/><stop offset=".8912" stop-color="#c1a256"/><stop offset=".9234" stop-color="#d6be77"/></linearGradient><path d="M57.2 104.4l-.4-.4h-.4l.8.8v-.4z" fill="url(#SVGID_21_)"/><linearGradient id="SVGID_22_" gradientUnits="userSpaceOnUse" x1="55.0775" y1="-6381.4136" x2="111.3979" y2="-6325.0942" gradientTransform="matrix(1 0 0 -1 0 -6273.0679)"><stop offset="0" stop-color="#7e5200"/><stop offset=".0955" stop-color="#946d1e"/><stop offset=".2674" stop-color="#b8994e"/><stop offset=".3987" stop-color="#ceb46c"/><stop offset=".473" stop-color="#d6be77"/><stop offset=".6248" stop-color="#d4bb75"/><stop offset=".7172" stop-color="#cdb36d"/><stop offset=".7936" stop-color="#c1a55f"/><stop offset=".8613" stop-color="#b1904c"/><stop offset=".9233" stop-color="#9b7633"/><stop offset=".9804" stop-color="#815615"/><stop offset=".9865" stop-color="#7e5211"/></linearGradient><path d="M84.3 46.4c-1.9 2-3.5 5.3-3.5 10.4v34.5c0 3.3 1.1 12.2 10.9 13.1l.3-.3c-1.9 0-10.1-.9-10.1-13.9V56.8s0-12.4 10.5-12.4l-.8-1.1c.1 0-4.1 0-7.3 3.1z" fill="url(#SVGID_22_)"/><linearGradient id="SVGID_23_" gradientUnits="userSpaceOnUse" x1="-5658.3784" y1="-6346.9175" x2="-5646.4707" y2="-6346.9175" gradientTransform="rotate(180 -2782.7917 -3136.534)"><stop offset=".2748" stop-color="#744b00"/><stop offset=".354" stop-color="#7b5309"/><stop offset=".4842" stop-color="#8e6922"/><stop offset=".6495" stop-color="#ad8d4a"/><stop offset=".8412" stop-color="#d7bf82"/><stop offset=".9234" stop-color="#ebd69c"/></linearGradient><path d="M84.3 46.4c-1.9 2-3.5 5.3-3.5 10.4v34.5c0 3.3 1.1 12.2 10.9 13.1l.3-.3c-1.9 0-10.1-.9-10.1-13.9V56.8s0-12.4 10.5-12.4l-.8-1.1c.1 0-4.1 0-7.3 3.1z" fill="url(#SVGID_23_)"/><path class="st5" d="M92.1 42.9h-.4l.7 1.5V41l-.4.8v1.1z"/><path class="st5" d="M92.1 41.8l.4-.8-.8.8zM92.1 105.6h-.4l.8.7v-2.2l-.4.3zM92.5 104.1v-.4l-.4.4h.4z"/><path class="st5" d="M92.1 104.4l.4-.4h-.4l-.3.3c.1.1.2.1.3.1z"/></g></g></svg>